<mxfile host="app.diagrams.net" modified="2020-03-17T13:43:02.063Z" agent="Mozilla/5.0 (Windows NT 10.0; WOW64) AppleWebKit/537.36 (KHTML, like Gecko) Chrome/80.0.3987.132 Safari/537.36" etag="mRxP3pLBwa26nK4kak6W" version="12.8.5" type="github">
  <diagram id="wjSjPYN3a7mQub9L3QAU" name="第 1 页">
    <mxGraphModel dx="782" dy="437" grid="1" gridSize="10" guides="1" tooltips="1" connect="1" arrows="1" fold="1" page="1" pageScale="1" pageWidth="827" pageHeight="1169" math="0" shadow="0">
      <root>
        <mxCell id="0" />
        <mxCell id="1" parent="0" />
        <mxCell id="Wfe6coBTv527p-xqTUNL-22" style="edgeStyle=none;rounded=0;orthogonalLoop=1;jettySize=auto;html=1;exitX=1;exitY=0.5;exitDx=0;exitDy=0;entryX=0;entryY=0.5;entryDx=0;entryDy=0;startArrow=classic;startFill=1;" parent="1" source="Wfe6coBTv527p-xqTUNL-1" target="Wfe6coBTv527p-xqTUNL-16" edge="1">
          <mxGeometry relative="1" as="geometry" />
        </mxCell>
        <mxCell id="Wfe6coBTv527p-xqTUNL-1" value="AppMain" style="rounded=0;whiteSpace=wrap;html=1;" parent="1" vertex="1">
          <mxGeometry x="110" y="40" width="86" height="50" as="geometry" />
        </mxCell>
        <mxCell id="Wfe6coBTv527p-xqTUNL-5" style="rounded=0;orthogonalLoop=1;jettySize=auto;html=1;exitX=0.5;exitY=1;exitDx=0;exitDy=0;entryX=0.5;entryY=0;entryDx=0;entryDy=0;" parent="1" source="Wfe6coBTv527p-xqTUNL-2" target="Wfe6coBTv527p-xqTUNL-3" edge="1">
          <mxGeometry relative="1" as="geometry">
            <mxPoint x="380" y="130" as="targetPoint" />
          </mxGeometry>
        </mxCell>
        <mxCell id="Wfe6coBTv527p-xqTUNL-7" style="rounded=0;orthogonalLoop=1;jettySize=auto;html=1;exitX=0.5;exitY=1;exitDx=0;exitDy=0;entryX=0.5;entryY=0;entryDx=0;entryDy=0;" parent="1" source="Wfe6coBTv527p-xqTUNL-2" target="Wfe6coBTv527p-xqTUNL-6" edge="1">
          <mxGeometry relative="1" as="geometry" />
        </mxCell>
        <mxCell id="Wfe6coBTv527p-xqTUNL-2" value="AppWindows" style="rounded=0;whiteSpace=wrap;html=1;" parent="1" vertex="1">
          <mxGeometry x="390" y="40" width="100" height="50" as="geometry" />
        </mxCell>
        <mxCell id="Wfe6coBTv527p-xqTUNL-24" style="edgeStyle=none;rounded=0;orthogonalLoop=1;jettySize=auto;html=1;exitX=0.5;exitY=1;exitDx=0;exitDy=0;entryX=0.5;entryY=0;entryDx=0;entryDy=0;startArrow=none;startFill=0;" parent="1" source="Wfe6coBTv527p-xqTUNL-3" target="Wfe6coBTv527p-xqTUNL-8" edge="1">
          <mxGeometry relative="1" as="geometry" />
        </mxCell>
        <mxCell id="Wfe6coBTv527p-xqTUNL-25" style="edgeStyle=none;rounded=0;orthogonalLoop=1;jettySize=auto;html=1;exitX=0.5;exitY=1;exitDx=0;exitDy=0;entryX=0.5;entryY=0;entryDx=0;entryDy=0;startArrow=none;startFill=0;" parent="1" source="Wfe6coBTv527p-xqTUNL-3" target="Wfe6coBTv527p-xqTUNL-10" edge="1">
          <mxGeometry relative="1" as="geometry" />
        </mxCell>
        <mxCell id="Wfe6coBTv527p-xqTUNL-31" style="edgeStyle=none;rounded=0;orthogonalLoop=1;jettySize=auto;html=1;exitX=0.5;exitY=1;exitDx=0;exitDy=0;entryX=0.5;entryY=0;entryDx=0;entryDy=0;startArrow=none;startFill=0;" parent="1" source="Wfe6coBTv527p-xqTUNL-3" target="Wfe6coBTv527p-xqTUNL-11" edge="1">
          <mxGeometry relative="1" as="geometry" />
        </mxCell>
        <mxCell id="Wfe6coBTv527p-xqTUNL-3" value="Recevier" style="rounded=0;whiteSpace=wrap;html=1;dashed=1;" parent="1" vertex="1">
          <mxGeometry x="470" y="130" width="70" height="30" as="geometry" />
        </mxCell>
        <mxCell id="Wfe6coBTv527p-xqTUNL-23" style="edgeStyle=none;rounded=0;orthogonalLoop=1;jettySize=auto;html=1;exitX=0.5;exitY=1;exitDx=0;exitDy=0;entryX=0.5;entryY=0;entryDx=0;entryDy=0;startArrow=none;startFill=0;" parent="1" source="Wfe6coBTv527p-xqTUNL-6" target="Wfe6coBTv527p-xqTUNL-14" edge="1">
          <mxGeometry relative="1" as="geometry" />
        </mxCell>
        <mxCell id="Wfe6coBTv527p-xqTUNL-6" value="Sender" style="rounded=0;whiteSpace=wrap;html=1;dashed=1;" parent="1" vertex="1">
          <mxGeometry x="360" y="130" width="70" height="30" as="geometry" />
        </mxCell>
        <mxCell id="Wfe6coBTv527p-xqTUNL-38" style="edgeStyle=orthogonalEdgeStyle;rounded=0;orthogonalLoop=1;jettySize=auto;html=1;exitX=0.5;exitY=1;exitDx=0;exitDy=0;entryX=0.5;entryY=1;entryDx=0;entryDy=0;startArrow=none;startFill=0;" parent="1" source="Wfe6coBTv527p-xqTUNL-8" target="Wfe6coBTv527p-xqTUNL-32" edge="1">
          <mxGeometry relative="1" as="geometry">
            <Array as="points">
              <mxPoint x="420" y="336" />
              <mxPoint x="180" y="336" />
            </Array>
          </mxGeometry>
        </mxCell>
        <mxCell id="Wfe6coBTv527p-xqTUNL-8" value="BGWindow" style="rounded=1;whiteSpace=wrap;html=1;" parent="1" vertex="1">
          <mxGeometry x="380" y="286" width="80" height="30" as="geometry" />
        </mxCell>
        <mxCell id="Wfe6coBTv527p-xqTUNL-39" style="edgeStyle=orthogonalEdgeStyle;rounded=0;orthogonalLoop=1;jettySize=auto;html=1;exitX=0.5;exitY=1;exitDx=0;exitDy=0;entryX=0.5;entryY=1;entryDx=0;entryDy=0;startArrow=none;startFill=0;" parent="1" source="Wfe6coBTv527p-xqTUNL-10" target="Wfe6coBTv527p-xqTUNL-32" edge="1">
          <mxGeometry relative="1" as="geometry">
            <Array as="points">
              <mxPoint x="530" y="336" />
              <mxPoint x="180" y="336" />
            </Array>
          </mxGeometry>
        </mxCell>
        <mxCell id="Wfe6coBTv527p-xqTUNL-10" value="FloatWindow" style="rounded=1;whiteSpace=wrap;html=1;" parent="1" vertex="1">
          <mxGeometry x="490" y="286" width="80" height="30" as="geometry" />
        </mxCell>
        <mxCell id="Wfe6coBTv527p-xqTUNL-40" style="edgeStyle=orthogonalEdgeStyle;rounded=0;orthogonalLoop=1;jettySize=auto;html=1;exitX=0.5;exitY=1;exitDx=0;exitDy=0;startArrow=none;startFill=0;entryX=0.5;entryY=1;entryDx=0;entryDy=0;" parent="1" source="Wfe6coBTv527p-xqTUNL-11" target="Wfe6coBTv527p-xqTUNL-32" edge="1">
          <mxGeometry relative="1" as="geometry">
            <mxPoint x="120" y="336" as="targetPoint" />
            <Array as="points">
              <mxPoint x="640" y="336" />
              <mxPoint x="180" y="336" />
            </Array>
          </mxGeometry>
        </mxCell>
        <mxCell id="Wfe6coBTv527p-xqTUNL-11" value="SendersWindow" style="rounded=1;whiteSpace=wrap;html=1;" parent="1" vertex="1">
          <mxGeometry x="590" y="286" width="100" height="30" as="geometry" />
        </mxCell>
        <mxCell id="Wfe6coBTv527p-xqTUNL-33" style="edgeStyle=orthogonalEdgeStyle;rounded=0;orthogonalLoop=1;jettySize=auto;html=1;exitX=0.5;exitY=1;exitDx=0;exitDy=0;entryX=0.5;entryY=1;entryDx=0;entryDy=0;startArrow=none;startFill=0;" parent="1" source="Wfe6coBTv527p-xqTUNL-14" target="Wfe6coBTv527p-xqTUNL-32" edge="1">
          <mxGeometry relative="1" as="geometry">
            <Array as="points">
              <mxPoint x="280" y="336" />
              <mxPoint x="180" y="336" />
            </Array>
          </mxGeometry>
        </mxCell>
        <mxCell id="Wfe6coBTv527p-xqTUNL-14" value="SenderWindow" style="rounded=1;whiteSpace=wrap;html=1;" parent="1" vertex="1">
          <mxGeometry x="230" y="286" width="100" height="30" as="geometry" />
        </mxCell>
        <mxCell id="3QrZFKQzmHGx9tuXlsho-21" style="edgeStyle=orthogonalEdgeStyle;rounded=0;orthogonalLoop=1;jettySize=auto;html=1;exitX=1;exitY=0.5;exitDx=0;exitDy=0;entryX=0;entryY=0.5;entryDx=0;entryDy=0;startArrow=classic;startFill=1;" edge="1" parent="1" source="Wfe6coBTv527p-xqTUNL-16" target="Wfe6coBTv527p-xqTUNL-2">
          <mxGeometry relative="1" as="geometry" />
        </mxCell>
        <mxCell id="Wfe6coBTv527p-xqTUNL-16" value="IPCConnection" style="rounded=0;whiteSpace=wrap;html=1;" parent="1" vertex="1">
          <mxGeometry x="240" y="35" width="100" height="60" as="geometry" />
        </mxCell>
        <mxCell id="Wfe6coBTv527p-xqTUNL-32" value="Preload" style="ellipse;whiteSpace=wrap;html=1;dashed=1;" parent="1" vertex="1">
          <mxGeometry x="150" y="280" width="60" height="31" as="geometry" />
        </mxCell>
        <mxCell id="3QrZFKQzmHGx9tuXlsho-20" style="edgeStyle=orthogonalEdgeStyle;rounded=0;orthogonalLoop=1;jettySize=auto;html=1;exitX=1;exitY=0.5;exitDx=0;exitDy=0;entryX=0;entryY=0.5;entryDx=0;entryDy=0;startArrow=none;startFill=0;" edge="1" parent="1" source="3QrZFKQzmHGx9tuXlsho-12" target="Wfe6coBTv527p-xqTUNL-32">
          <mxGeometry relative="1" as="geometry" />
        </mxCell>
        <mxCell id="3QrZFKQzmHGx9tuXlsho-8" value="MyNode" style="swimlane;fontStyle=0;childLayout=stackLayout;horizontal=1;startSize=26;fillColor=none;horizontalStack=0;resizeParent=1;resizeParentMax=0;resizeLast=0;collapsible=1;marginBottom=0;" vertex="1" parent="1">
          <mxGeometry x="20" y="180" width="80" height="242" as="geometry" />
        </mxCell>
        <mxCell id="3QrZFKQzmHGx9tuXlsho-9" value="electron" style="text;strokeColor=#000000;fillColor=none;align=left;verticalAlign=top;spacingLeft=4;spacingRight=4;overflow=hidden;rotatable=0;points=[[0,0.5],[1,0.5]];portConstraint=eastwest;dashed=1;" vertex="1" parent="3QrZFKQzmHGx9tuXlsho-8">
          <mxGeometry y="26" width="80" height="24" as="geometry" />
        </mxCell>
        <mxCell id="3QrZFKQzmHGx9tuXlsho-10" value="process" style="text;strokeColor=none;fillColor=none;align=left;verticalAlign=top;spacingLeft=4;spacingRight=4;overflow=hidden;rotatable=0;points=[[0,0.5],[1,0.5]];portConstraint=eastwest;dashed=1;aspect=fixed;" vertex="1" parent="3QrZFKQzmHGx9tuXlsho-8">
          <mxGeometry y="50" width="80" height="24" as="geometry" />
        </mxCell>
        <mxCell id="3QrZFKQzmHGx9tuXlsho-11" value="fs" style="text;strokeColor=#000000;fillColor=none;align=left;verticalAlign=top;spacingLeft=4;spacingRight=4;overflow=hidden;rotatable=0;points=[[0,0.5],[1,0.5]];portConstraint=eastwest;dashed=1;" vertex="1" parent="3QrZFKQzmHGx9tuXlsho-8">
          <mxGeometry y="74" width="80" height="24" as="geometry" />
        </mxCell>
        <mxCell id="3QrZFKQzmHGx9tuXlsho-12" value="path" style="text;strokeColor=#000000;fillColor=none;align=left;verticalAlign=top;spacingLeft=4;spacingRight=4;overflow=hidden;rotatable=0;points=[[0,0.5],[1,0.5]];portConstraint=eastwest;dashed=1;" vertex="1" parent="3QrZFKQzmHGx9tuXlsho-8">
          <mxGeometry y="98" width="80" height="24" as="geometry" />
        </mxCell>
        <mxCell id="3QrZFKQzmHGx9tuXlsho-14" value="robotjs" style="text;strokeColor=#000000;fillColor=none;align=left;verticalAlign=top;spacingLeft=4;spacingRight=4;overflow=hidden;rotatable=0;points=[[0,0.5],[1,0.5]];portConstraint=eastwest;dashed=1;" vertex="1" parent="3QrZFKQzmHGx9tuXlsho-8">
          <mxGeometry y="122" width="80" height="24" as="geometry" />
        </mxCell>
        <mxCell id="3QrZFKQzmHGx9tuXlsho-15" value="path" style="text;strokeColor=#000000;fillColor=none;align=left;verticalAlign=top;spacingLeft=4;spacingRight=4;overflow=hidden;rotatable=0;points=[[0,0.5],[1,0.5]];portConstraint=eastwest;dashed=1;" vertex="1" parent="3QrZFKQzmHGx9tuXlsho-8">
          <mxGeometry y="146" width="80" height="24" as="geometry" />
        </mxCell>
        <mxCell id="3QrZFKQzmHGx9tuXlsho-17" value="__dirname" style="text;strokeColor=#000000;fillColor=none;align=left;verticalAlign=top;spacingLeft=4;spacingRight=4;overflow=hidden;rotatable=0;points=[[0,0.5],[1,0.5]];portConstraint=eastwest;dashed=1;" vertex="1" parent="3QrZFKQzmHGx9tuXlsho-8">
          <mxGeometry y="170" width="80" height="24" as="geometry" />
        </mxCell>
        <mxCell id="3QrZFKQzmHGx9tuXlsho-18" value="__filename" style="text;strokeColor=#000000;fillColor=none;align=left;verticalAlign=top;spacingLeft=4;spacingRight=4;overflow=hidden;rotatable=0;points=[[0,0.5],[1,0.5]];portConstraint=eastwest;dashed=1;" vertex="1" parent="3QrZFKQzmHGx9tuXlsho-8">
          <mxGeometry y="194" width="80" height="24" as="geometry" />
        </mxCell>
        <mxCell id="3QrZFKQzmHGx9tuXlsho-19" value="require" style="text;strokeColor=#000000;fillColor=none;align=left;verticalAlign=top;spacingLeft=4;spacingRight=4;overflow=hidden;rotatable=0;points=[[0,0.5],[1,0.5]];portConstraint=eastwest;dashed=1;" vertex="1" parent="3QrZFKQzmHGx9tuXlsho-8">
          <mxGeometry y="218" width="80" height="24" as="geometry" />
        </mxCell>
        <mxCell id="3QrZFKQzmHGx9tuXlsho-22" value="&amp;laquo;interface&amp;raquo;&lt;br&gt;&lt;b&gt;Name&lt;/b&gt;" style="html=1;dashed=1;strokeColor=#000000;" vertex="1" parent="1">
          <mxGeometry x="90" y="570" width="110" height="50" as="geometry" />
        </mxCell>
        <mxCell id="3QrZFKQzmHGx9tuXlsho-23" value="IApp" style="swimlane;fontStyle=1;align=center;verticalAlign=top;childLayout=stackLayout;horizontal=1;startSize=26;horizontalStack=0;resizeParent=1;resizeParentMax=0;resizeLast=0;collapsible=1;marginBottom=0;dashed=1;strokeColor=#000000;" vertex="1" parent="1">
          <mxGeometry x="220" y="500" width="400" height="216" as="geometry" />
        </mxCell>
        <mxCell id="3QrZFKQzmHGx9tuXlsho-25" value="" style="line;strokeWidth=1;fillColor=none;align=left;verticalAlign=middle;spacingTop=-1;spacingLeft=3;spacingRight=3;rotatable=0;labelPosition=right;points=[];portConstraint=eastwest;" vertex="1" parent="3QrZFKQzmHGx9tuXlsho-23">
          <mxGeometry y="26" width="400" height="8" as="geometry" />
        </mxCell>
        <mxCell id="3QrZFKQzmHGx9tuXlsho-24" value="+ appWindows: {[name: string]: windows.IBaseWindowClass}" style="text;strokeColor=none;fillColor=none;align=left;verticalAlign=top;spacingLeft=4;spacingRight=4;overflow=hidden;rotatable=0;points=[[0,0.5],[1,0.5]];portConstraint=eastwest;" vertex="1" parent="3QrZFKQzmHGx9tuXlsho-23">
          <mxGeometry y="34" width="400" height="26" as="geometry" />
        </mxCell>
        <mxCell id="3QrZFKQzmHGx9tuXlsho-27" value="+ windows: {[name: string]: windows.IBaseWindow}" style="text;strokeColor=none;fillColor=none;align=left;verticalAlign=top;spacingLeft=4;spacingRight=4;overflow=hidden;rotatable=0;points=[[0,0.5],[1,0.5]];portConstraint=eastwest;" vertex="1" parent="3QrZFKQzmHGx9tuXlsho-23">
          <mxGeometry y="60" width="400" height="26" as="geometry" />
        </mxCell>
        <mxCell id="3QrZFKQzmHGx9tuXlsho-28" value="+ ipcConnection: Common.Modules.IPCConnection" style="text;strokeColor=none;fillColor=none;align=left;verticalAlign=top;spacingLeft=4;spacingRight=4;overflow=hidden;rotatable=0;points=[[0,0.5],[1,0.5]];portConstraint=eastwest;" vertex="1" parent="3QrZFKQzmHGx9tuXlsho-23">
          <mxGeometry y="86" width="400" height="26" as="geometry" />
        </mxCell>
        <mxCell id="3QrZFKQzmHGx9tuXlsho-26" value="+ createWindows()" style="text;strokeColor=none;fillColor=none;align=left;verticalAlign=top;spacingLeft=4;spacingRight=4;overflow=hidden;rotatable=0;points=[[0,0.5],[1,0.5]];portConstraint=eastwest;" vertex="1" parent="3QrZFKQzmHGx9tuXlsho-23">
          <mxGeometry y="112" width="400" height="26" as="geometry" />
        </mxCell>
        <mxCell id="3QrZFKQzmHGx9tuXlsho-29" value="+ destroyWindows()" style="text;strokeColor=none;fillColor=none;align=left;verticalAlign=top;spacingLeft=4;spacingRight=4;overflow=hidden;rotatable=0;points=[[0,0.5],[1,0.5]];portConstraint=eastwest;" vertex="1" parent="3QrZFKQzmHGx9tuXlsho-23">
          <mxGeometry y="138" width="400" height="26" as="geometry" />
        </mxCell>
        <mxCell id="3QrZFKQzmHGx9tuXlsho-30" value="+ createWindow(name: string, iClass: windows.IBaseWindowClass)" style="text;strokeColor=none;fillColor=none;align=left;verticalAlign=top;spacingLeft=4;spacingRight=4;overflow=hidden;rotatable=0;points=[[0,0.5],[1,0.5]];portConstraint=eastwest;" vertex="1" parent="3QrZFKQzmHGx9tuXlsho-23">
          <mxGeometry y="164" width="400" height="26" as="geometry" />
        </mxCell>
        <mxCell id="3QrZFKQzmHGx9tuXlsho-31" value="+ destroyWindow(name: string) " style="text;strokeColor=none;fillColor=none;align=left;verticalAlign=top;spacingLeft=4;spacingRight=4;overflow=hidden;rotatable=0;points=[[0,0.5],[1,0.5]];portConstraint=eastwest;" vertex="1" parent="3QrZFKQzmHGx9tuXlsho-23">
          <mxGeometry y="190" width="400" height="26" as="geometry" />
        </mxCell>
      </root>
    </mxGraphModel>
  </diagram>
</mxfile>
